<svg xmlns="http://www.w3.org/2000/svg" xmlns:xlink="http://www.w3.org/1999/xlink" id="Layer_1" x="0px" y="0px" viewBox="0 0 165.5 60.8" style="enable-background:new 0 0 165.5 60.8;" xml:space="preserve"><style type="text/css">	.st0{fill:#FFFFFF;}	.st1{fill:#ED1C24;}	.st2{fill:#F0533F;}	.st3{clip-path:url(#SVGID_00000008834662663592842670000004051093011704189349_);fill:#FFFFFF;}</style><polygon class="st0" points="30,1.5 35.9,18 52.5,12.3 43.2,27.2 58,36.6 40.6,38.7 42.5,56.1 30,43.8 17.5,56.1 30,30.2 2,36.6  16.8,27.2 7.5,12.3 24.1,18 "></polygon><polygon class="st1" points="30,30.2 2,36.6 19.4,38.7 "></polygon><polygon class="st2" points="30,30.2 19.4,38.7 17.5,56.1 "></polygon><g>	<defs>		<rect id="SVGID_1_" y="-2" width="165.5" height="60.8"></rect>	</defs>	<clipPath id="SVGID_00000054238564572786860470000005552571435375043263_">		<use xlink:href="#SVGID_1_" style="overflow:visible;"></use>	</clipPath>	<path style="clip-path:url(#SVGID_00000054238564572786860470000005552571435375043263_);fill:#FFFFFF;" d="M62.6,49.4  c-0.5,0-0.9,0.1-1.4,0.3v1.1c0.4-0.2,0.7-0.3,1.2-0.3c0.7,0,1,0.4,1,1.2v0.5c-0.3-0.2-0.6-0.3-1-0.3c-1,0-1.6,0.7-1.6,2.1v0.2  c0,1.2,0.6,2,1.4,2c0.5,0,0.9-0.3,1.2-0.9v0.8h1.2v-4.6C64.6,50.1,63.9,49.4,62.6,49.4 M63.5,54.3c0,0.6-0.3,1-0.7,1  c-0.4,0-0.6-0.4-0.6-1.1V54c0-0.7,0.3-1.1,0.7-1.1c0.2,0,0.5,0.1,0.7,0.2V54.3z M87.3,29L87.3,29c0,1-0.7,1.6-1.6,1.6  c-0.9,0-1.9-0.4-3-1v2.8c1,0.4,2.1,0.7,3.2,0.7c2.3,0,4.2-1.6,4.2-4.2v-0.1c0-1.8-0.6-3-2.7-5c-1.7-1.7-2-2.2-2-3v-0.1  c0-0.8,0.6-1.4,1.6-1.4c0.8,0,1.6,0.3,2.4,0.7v-2.8c-0.8-0.3-1.6-0.4-2.5-0.4c-2.4,0-4.2,1.5-4.2,4V21c0,1.8,0.9,3.2,2.7,5  C86.9,27.5,87.3,28.2,87.3,29 M155.4,56.1h1.2v-8.9h-1.2V56.1z M157.6,48.6h1.2v-1.3h-1.2V48.6z M63.4,44.5c0.4,0,0.8-0.1,1.1-0.3  v-1.2c-0.3,0.2-0.6,0.3-0.9,0.3c-0.8,0-1.4-0.7-1.4-3.1v-0.3c0-2.3,0.6-3.1,1.4-3.1c0.3,0,0.5,0.1,0.9,0.3v-1.3  c-0.3-0.2-0.5-0.2-1-0.2c-1.4,0-2.5,1.3-2.5,4.3v0.3C60.9,43.2,62,44.5,63.4,44.5 M157.7,56.1h1.2v-6.7h-1.2V56.1z M78.2,28.1  c0,1.6-0.7,2.5-1.7,2.5c-1,0-1.6-0.8-1.6-2.4v-11h-2.8v11.6c0,2.6,1.1,4.3,3.2,4.3c1.5,0,2.3-1,2.9-2.3v2H81V17.2h-2.8V28.1z   M68,49.3c-0.6,0-1,0.4-1.2,1v-0.9h-1.2v6.7h1.2v-4.7c0-0.7,0.3-1.1,0.7-1.1c0.4,0,0.7,0.4,0.7,1v4.7h1.2v-4.9  C69.4,50,68.9,49.3,68,49.3 M72.3,43.7v0.8h1.2v-4.6c0-1.4-0.7-2.2-2-2.2c-0.5,0-0.9,0.1-1.4,0.3v1.1c0.4-0.2,0.7-0.3,1.2-0.3  c0.7,0,1,0.4,1,1.2v0.5c-0.3-0.2-0.6-0.3-1-0.3c-1,0-1.6,0.7-1.6,2.1v0.2c0,1.2,0.6,2,1.4,2C71.6,44.6,72,44.3,72.3,43.7   M70.9,42.3c0-0.7,0.3-1.1,0.7-1.1c0.2,0,0.5,0.1,0.7,0.2v1.2c0,0.6-0.3,1-0.7,1c-0.4,0-0.6-0.4-0.6-1.1V42.3z M152.4,49.4  c-0.5,0-0.9,0.1-1.4,0.3v1.1c0.4-0.2,0.7-0.3,1.2-0.3c0.7,0,1,0.4,1,1.2v0.5c-0.3-0.2-0.6-0.3-1-0.3c-1,0-1.6,0.7-1.6,2.1v0.2  c0,1.2,0.6,2,1.4,2c0.5,0,0.9-0.3,1.2-0.9v0.8h1.2v-4.6C154.5,50.1,153.7,49.4,152.4,49.4 M153.3,54.3c0,0.6-0.3,1-0.7,1  c-0.4,0-0.6-0.4-0.6-1.1V54c0-0.7,0.3-1.1,0.7-1.1c0.2,0,0.5,0.1,0.7,0.2V54.3z M67,22.4c1.6-0.7,3.2-2,3.2-4.7v-0.1  c0-3.6-2.9-5.2-6.3-5.2h-3v20.5h2.9c3.9,0,6.7-2,6.7-5.6V27C70.5,24.4,69,23,67,22.4 M63.8,15h0.4c1.9,0,3.1,1,3.1,3V18  c0,2.1-1.2,3.2-3.3,3.2h-0.3V15z M67.6,27c0,2-1.4,3.1-3.5,3.1h-0.3v-6.4h0.4c2.1,0,3.4,1.1,3.4,3.2V27z M66.5,39.8  c0-0.7,0.3-1.1,0.7-1.1c0.4,0,0.7,0.4,0.7,1v4.7h1.2v-4.9c0-1.1-0.5-1.9-1.4-1.9c-0.6,0-1,0.4-1.2,1v-3h-1.2v8.9h1.2V39.8z M122,29  L122,29c0,1-0.7,1.6-1.6,1.6c-0.9,0-1.9-0.4-3-1v2.8c1,0.4,2.1,0.7,3.2,0.7c2.3,0,4.2-1.6,4.2-4.2v-0.1c0-1.8-0.6-3-2.7-5  c-1.7-1.7-2-2.2-2-3v-0.1c0-0.8,0.6-1.4,1.6-1.4c0.8,0,1.6,0.3,2.4,0.7v-2.8c-0.8-0.3-1.6-0.4-2.5-0.4c-2.4,0-4.2,1.5-4.2,4V21  c0,1.8,0.9,3.2,2.7,5C121.7,27.5,122,28.2,122,29 M144.4,28.1L144.4,28.1c0,1.5-0.9,2.2-2.2,2.2c-1,0-2.1-0.4-3.3-1.2v3  c1.1,0.6,2.3,0.9,3.6,0.9c2.7,0,4.8-2,4.8-5v-0.1c0-2.3-0.7-3.7-3.4-6.9c-1.9-2.2-2.3-2.8-2.3-4V17c0-1.3,0.9-2.1,2.1-2.1  c0.9,0,1.7,0.3,2.8,1v-3c-0.9-0.5-1.8-0.7-3.2-0.7c-2.6,0-4.7,2-4.7,5v0.1c0,2.3,0.9,3.6,3.4,6.6C144,26,144.4,26.9,144.4,28.1   M161.3,49.4c-0.5,0-0.9,0.1-1.4,0.3v1.1c0.4-0.2,0.7-0.3,1.2-0.3c0.7,0,1,0.4,1,1.2v0.5c-0.3-0.2-0.6-0.3-1-0.3  c-1,0-1.6,0.7-1.6,2.1v0.2c0,1.2,0.6,2,1.4,2c0.5,0,0.9-0.3,1.2-0.9v0.8h1.2v-4.6C163.3,50.1,162.6,49.4,161.3,49.4 M162.1,54.3  c0,0.6-0.3,1-0.7,1c-0.4,0-0.6-0.4-0.6-1.1V54c0-0.7,0.3-1.1,0.7-1.1c0.2,0,0.5,0.1,0.7,0.2V54.3z M111,44.6c1.1,0,2-1.2,2-3.3V41  c0-2.1-0.9-3.3-2-3.3c-1.1,0-2,1.2-2,3.3v0.3C109,43.4,109.9,44.6,111,44.6 M110.2,41c0-1.4,0.3-2.2,0.8-2.2c0.5,0,0.8,0.8,0.8,2.2  v0.4c0,1.4-0.3,2.2-0.8,2.2c-0.5,0-0.8-0.8-0.8-2.2V41z M134,40.6c0-1,0.5-1.5,1.2-1.5h0v-1.4c-0.6,0-1,0.4-1.2,1v-0.9h-1.2v6.7  h1.2V40.6z M94.4,17.2h-2.8v15.6h2.8V17.2z M137.5,44.6c0.4,0,0.6-0.1,0.9-0.3v-1.2c-0.2,0.2-0.5,0.3-0.7,0.3c-0.6,0-1-0.6-1-2.1  V41c0-1.5,0.5-2.1,1-2.1c0.3,0,0.5,0.1,0.8,0.3v-1.2c-0.3-0.1-0.5-0.2-0.9-0.2c-1.2,0-2.1,1.1-2.1,3.3v0.3  C135.5,43.5,136.4,44.6,137.5,44.6 M95.5,41v0.3c0,2.1,0.9,3.3,2,3.3c1.1,0,2-1.2,2-3.3V41c0-2.1-0.9-3.3-2-3.3  C96.3,37.7,95.5,38.8,95.5,41 M98.3,41v0.4c0,1.4-0.3,2.2-0.8,2.2c-0.5,0-0.8-0.8-0.8-2.2V41c0-1.4,0.3-2.2,0.8-2.2  C98,38.7,98.3,39.5,98.3,41 M99.5,21.9c0-1.6,0.7-2.5,1.7-2.5c1,0,1.6,0.9,1.6,2.4v11h2.8V21.3c0-2.6-1.1-4.3-3.2-4.3  c-1.5,0-2.3,1-2.9,2.3v-2h-2.8v15.6h2.8V21.9z M94.4,12.1h-2.9v3h2.9V12.1z M73.1,50.4c-0.2-0.5-0.6-1.1-1.2-1.1  c-0.8,0-1.5,0.9-1.5,3.2V53c0,2.3,0.7,3.2,1.5,3.2c0.7,0,1-0.6,1.2-1.1v1h1.2v-8.9h-1.2V50.4z M72.9,53c0,1.4-0.4,2.1-0.8,2.1  c-0.5,0-0.8-0.8-0.8-2.1v-0.4c0-1.4,0.3-2.1,0.8-2.1c0.5,0,0.8,0.8,0.8,2.1V53z M112.6,33.1c1.3,0,2.2-0.4,3.3-1.1l-0.2-2.6  c-1,0.7-1.7,1.1-2.7,1.1c-1.4,0-2.7-1.2-2.8-4.2h6.1v-1.5c0-5.1-1.7-7.8-4.3-7.8c-2.5,0-4.6,2.7-4.6,7.8v0.6  C107.4,30.5,109.8,33.1,112.6,33.1 M112,19.5c1.1,0,1.7,1.7,1.7,4.6h-3.5C110.2,20.9,110.9,19.5,112,19.5 M130.3,29L130.3,29  c0,1-0.7,1.6-1.6,1.6c-0.9,0-1.9-0.4-3-1v2.8c1,0.4,2.1,0.7,3.2,0.7c2.3,0,4.2-1.6,4.2-4.2v-0.1c0-1.8-0.6-3-2.7-5  c-1.7-1.7-2-2.2-2-3v-0.1c0-0.8,0.6-1.4,1.6-1.4c0.8,0,1.6,0.3,2.4,0.7v-2.8c-0.9-0.3-1.6-0.4-2.5-0.4c-2.4,0-4.2,1.5-4.2,4V21  c0,1.8,0.9,3.2,2.7,5C129.9,27.5,130.3,28.2,130.3,29 M142.6,51L142.6,51c0-0.4,0.3-0.6,0.7-0.6c0.4,0,0.7,0.1,1,0.3v-1.2  c-0.4-0.1-0.7-0.2-1.1-0.2c-1,0-1.8,0.7-1.8,1.7v0c0,0.8,0.4,1.4,1.2,2.1c0.7,0.7,0.8,0.9,0.8,1.3v0c0,0.4-0.3,0.6-0.7,0.6  c-0.4,0-0.8-0.2-1.3-0.4v1.2c0.4,0.2,0.9,0.3,1.4,0.3c1,0,1.8-0.7,1.8-1.8v0c0-0.8-0.3-1.3-1.1-2.1C142.8,51.6,142.6,51.4,142.6,51   M110.2,49.4L110.2,49.4c0-0.6,0.4-0.9,0.9-0.9c0.4,0,0.7,0.1,1.2,0.4v-1.3c-0.4-0.2-0.8-0.3-1.4-0.3c-1.1,0-2,0.9-2,2.1v0  c0,1,0.4,1.5,1.5,2.8c0.8,1,1,1.3,1,1.8v0c0,0.6-0.4,0.9-0.9,0.9c-0.4,0-0.9-0.2-1.4-0.5v1.3c0.5,0.2,1,0.4,1.5,0.4  c1.1,0,2.1-0.9,2.1-2.2v0c0-1-0.3-1.6-1.5-3C110.4,50.1,110.2,49.8,110.2,49.4 M115,49.3c-1.1,0-2,1.2-2,3.3v0.3  c0,2.1,0.9,3.3,2,3.3c1.1,0,2-1.2,2-3.3v-0.3C117,50.5,116.2,49.3,115,49.3 M115.9,53c0,1.4-0.3,2.2-0.8,2.2  c-0.5,0-0.8-0.8-0.8-2.2v-0.4c0-1.4,0.3-2.2,0.8-2.2c0.5,0,0.8,0.8,0.8,2.2V53z M106.3,40.2v-0.3c0-2.3,0.6-3.1,1.4-3.1  c0.3,0,0.5,0.1,0.9,0.3v-1.3c-0.3-0.2-0.5-0.2-1-0.2c-1.4,0-2.5,1.3-2.5,4.3v0.3c0,3,1.1,4.3,2.4,4.3c0.4,0,0.8-0.1,1.1-0.3v-1.2  c-0.3,0.2-0.6,0.3-0.9,0.3C106.9,43.3,106.3,42.6,106.3,40.2 M77.4,56.1h1.2v-8.8h-1.2V56.1z M118.3,38.7c0.4,0,0.7,0.4,0.7,1v4.7  h1.2v-4.9c0-1.2-0.7-1.9-1.4-1.9c-0.6,0-1,0.5-1.3,0.9c-0.2-0.5-0.6-0.9-1.2-0.9c-0.6,0-1,0.4-1.2,1v-0.9h-1.2v6.7h1.2v-4.7  c0-0.7,0.3-1.1,0.7-1.1c0.4,0,0.7,0.4,0.7,1v4.7h1.2v-4.7C117.6,39.1,117.9,38.7,118.3,38.7 M156.2,32.8h2.9l-4.1-20.6H152  l-4.1,20.6h2.8l0.8-4.6h3.9L156.2,32.8z M152,25.6l1.5-8.2l1.5,8.2H152z M104.9,53.9l-0.8-4.5h-1.2l1.4,6.5l-0.4,1.8h1.2l1.9-8.3  h-1.2L104.9,53.9z M101.4,50.3v-0.9h-1.2v6.7h1.2v-3.8c0-1,0.5-1.5,1.2-1.5h0v-1.4C102,49.3,101.7,49.7,101.4,50.3 M120.4,54.1  c0,0.7-0.3,1.1-0.7,1.1c-0.4,0-0.7-0.4-0.7-1v-4.7h-1.2v5c0,1.1,0.5,1.8,1.4,1.8c0.6,0,1-0.4,1.2-1v0.9h1.2v-6.7h-1.2V54.1z   M128.2,49.3c-0.6,0-1,0.4-1.2,1v-3h-1.2v8.9h1.2v-4.7c0-0.7,0.3-1.1,0.7-1.1c0.4,0,0.7,0.4,0.7,1v4.7h1.2v-4.9  C129.6,50,129.1,49.3,128.2,49.3 M131.8,43c-0.4,0.3-0.7,0.5-1.2,0.5c-0.6,0-1.1-0.5-1.2-1.8h2.6V41c0-2.2-0.7-3.3-1.8-3.3  c-1.1,0-2,1.1-2,3.3v0.3c0,2.2,1,3.3,2.2,3.3c0.6,0,0.9-0.2,1.4-0.5L131.8,43z M130.2,38.7c0.5,0,0.7,0.7,0.7,2h-1.5  C129.4,39.4,129.8,38.7,130.2,38.7 M139.6,54.1c0,0.7-0.3,1.1-0.7,1.1c-0.4,0-0.7-0.4-0.7-1v-4.7H137v5c0,1.1,0.5,1.8,1.4,1.8  c0.6,0,1-0.4,1.2-1v0.9h1.2v-6.7h-1.2V54.1z M126.3,39.8v4.7h1.2v-4.9c0-1.2-0.7-1.9-1.4-1.9c-0.6,0-1,0.5-1.3,0.9  c-0.2-0.5-0.6-0.9-1.2-0.9c-0.6,0-1,0.4-1.2,1v-0.9h-1.2v6.7h1.2v-4.7c0-0.7,0.3-1.1,0.7-1.1c0.4,0,0.7,0.4,0.7,1v4.7h1.2v-4.7  c0-0.7,0.3-1.1,0.7-1.1C126,38.7,126.3,39.1,126.3,39.8 M124,47.7h-1.2v1.8h-0.5v1h0.5V55c0,1,0.6,1.2,1.3,1.2  c0.3,0,0.6-0.1,0.7-0.2v-1c-0.1,0.1-0.3,0.1-0.4,0.1c-0.3,0-0.5-0.1-0.5-0.5v-4.2h0.9v-1H124V47.7z M100.5,44.5h1.2v-5.7h0.9v-1  h-0.9v-0.4c0-0.5,0.2-0.8,0.6-0.8c0.1,0,0.2,0,0.2,0v-1c-0.1,0-0.3-0.1-0.5-0.1c-1,0-1.6,0.5-1.6,1.6v0.6H100v1h0.5V44.5z M87,50.4  c-0.2-0.5-0.6-1.1-1.2-1.1c-0.8,0-1.5,0.9-1.5,3.2V53c0,2.3,0.7,3.2,1.5,3.2c0.7,0,1-0.6,1.2-1.1v1h1.2v-8.9H87V50.4z M86.9,53  c0,1.4-0.4,2.1-0.8,2.1c-0.5,0-0.8-0.8-0.8-2.1v-0.4c0-1.4,0.3-2.1,0.8-2.1c0.5,0,0.8,0.8,0.8,2.1V53z M85.6,41.4v-0.5  c0-2.3-0.7-3.2-1.5-3.2c-0.7,0-1,0.6-1.2,1.1v-3.2h-1.2v8.9h1.2v-1c0.2,0.5,0.6,1.1,1.2,1.1C84.9,44.6,85.6,43.7,85.6,41.4   M84.4,41.3c0,1.4-0.3,2.1-0.8,2.1c-0.5,0-0.8-0.8-0.8-2.1v-0.4c0-1.4,0.4-2.1,0.8-2.1c0.5,0,0.8,0.8,0.8,2.1V41.3z M146.6,47.7  h-1.2v1.8H145v1h0.5V55c0,1,0.6,1.2,1.3,1.2c0.3,0,0.6-0.1,0.7-0.2v-1c-0.1,0.1-0.3,0.1-0.4,0.1c-0.3,0-0.5-0.1-0.5-0.5v-4.2h0.9  v-1h-0.9V47.7z M149.4,50.3v-0.9h-1.2v6.7h1.2v-3.8c0-1,0.5-1.5,1.2-1.5h0v-1.4C150,49.3,149.6,49.7,149.4,50.3 M80.7,44.5v-4.9  c0-1.2-0.7-1.9-1.4-1.9c-0.6,0-1,0.5-1.3,0.9c-0.2-0.5-0.6-0.9-1.2-0.9c-0.6,0-1,0.4-1.2,1v-0.9h-1.2v6.7h1.2v-4.7  c0-0.7,0.3-1.1,0.7-1.1s0.7,0.4,0.7,1v4.7h1.2v-4.7c0-0.7,0.3-1.1,0.7-1.1c0.4,0,0.7,0.4,0.7,1v4.7H80.7z M82,49.3  c-0.6,0-1,0.4-1.2,1v-0.9h-1.2v6.7h1.2v-4.7c0-0.7,0.3-1.1,0.7-1.1c0.4,0,0.7,0.4,0.7,1v4.7h1.2v-4.9C83.3,50,82.8,49.3,82,49.3   M89.8,43c-0.4,0.3-0.7,0.5-1.2,0.5c-0.6,0-1.1-0.5-1.2-1.8h2.6V41c0-2.2-0.7-3.3-1.8-3.3c-1.1,0-2,1.1-2,3.3v0.3  c0,2.2,1,3.3,2.2,3.3c0.6,0,0.9-0.2,1.4-0.5L89.8,43z M88.2,38.7c0.5,0,0.7,0.7,0.7,2h-1.5C87.5,39.4,87.8,38.7,88.2,38.7 M94.7,51  L94.7,51c0-0.4,0.3-0.6,0.7-0.6c0.4,0,0.7,0.1,1,0.3v-1.2c-0.4-0.1-0.7-0.2-1.1-0.2c-1,0-1.8,0.7-1.8,1.7v0c0,0.8,0.4,1.4,1.2,2.1  c0.7,0.7,0.8,0.9,0.8,1.3v0c0,0.4-0.3,0.6-0.7,0.6c-0.4,0-0.8-0.2-1.3-0.4v1.2c0.4,0.2,0.9,0.3,1.4,0.3c1,0,1.8-0.7,1.8-1.8v0  c0-0.8-0.3-1.3-1.1-2.1C94.8,51.6,94.7,51.4,94.7,51 M98.6,47.7h-1.2v1.8H97v1h0.5V55c0,1,0.6,1.2,1.3,1.2c0.3,0,0.6-0.1,0.7-0.2  v-1c-0.1,0.1-0.3,0.1-0.4,0.1c-0.3,0-0.5-0.1-0.5-0.5v-4.2h0.9v-1h-0.9V47.7z M133.6,47.3l-1.7,8.8h1.2l0.4-2h1.7l0.4,2h1.2  l-1.7-8.8H133.6z M133.4,53l0.6-3.5l0.6,3.5H133.4z M92,38.7v-0.9h-1.2v6.7H92v-3.8c0-1,0.5-1.5,1.2-1.5h0v-1.4  C92.6,37.7,92.2,38.1,92,38.7 M91.6,54.1c0,0.7-0.3,1.1-0.7,1.1c-0.4,0-0.7-0.4-0.7-1v-4.7H89v5c0,1.1,0.5,1.8,1.4,1.8  c0.6,0,1-0.4,1.2-1v0.9h1.2v-6.7h-1.2V54.1z M142.5,43c-0.4,0.3-0.7,0.5-1.2,0.5c-0.6,0-1.1-0.5-1.2-1.8h2.6V41  c0-2.2-0.7-3.3-1.8-3.3c-1.1,0-2,1.1-2,3.3v0.3c0,2.2,1,3.3,2.2,3.3c0.6,0,0.9-0.2,1.4-0.5L142.5,43z M140.9,38.7  c0.5,0,0.7,0.7,0.7,2h-1.5C140.1,39.4,140.4,38.7,140.9,38.7"></path></g></svg>